<svg xmlns="http://www.w3.org/2000/svg" class="icon" viewBox="0 0 120 120"><path fill="none" stroke="#092A5E" stroke-linecap="round" stroke-linejoin="round" stroke-width="8" d="M105 105s-.087-4.502 0-10-1.273-7.385-10.243-13.378L70 65c10.078-4.84 9.912-14.479 10-20V35c.088-5.521-1.518-11.086-5.081-14.763-3.56-3.675-9.397-5.149-14.92-5.237-5.518.088-11.354 1.562-14.914 5.237-3.564 3.677-5.17 9.242-5.081 14.763v10c.088 5.521-.078 15.16 10 20L25.248 81.622C16.277 87.615 14.917 89.502 15.004 95c.087 5.498 0 10 0 10z"/></svg>